<svg width="20" height="16" viewBox="0 0 20 16" fill="none" xmlns="http://www.w3.org/2000/svg">
<g clip-path="url(#clip0_435_580)">
<path d="M19.9617 3.62854L12.9467 9.14033C12.1645 9.75335 11.1048 10.0976 10 10.0976C8.89521 10.0976 7.83552 9.75335 7.05333 9.14033L0.0383333 3.62854C0.0266667 3.73199 0 3.82562 0 3.92842V11.7856C0.00132321 12.6535 0.440735 13.4856 1.22185 14.0994C2.00296 14.7131 3.062 15.0583 4.16667 15.0594H15.8333C16.938 15.0583 17.997 14.7131 18.7782 14.0994C19.5593 13.4856 19.9987 12.6535 20 11.7856V3.92842C20 3.82562 19.9733 3.73199 19.9617 3.62854Z" fill="#A0A0A0"/>
<path d="M11.7675 8.21454L19.3791 2.23329C19.0104 1.75291 18.4904 1.35528 17.8691 1.07877C17.2479 0.802262 16.5465 0.656196 15.8325 0.654663H4.16581C3.45183 0.656196 2.75039 0.802262 2.12916 1.07877C1.50793 1.35528 0.987873 1.75291 0.619141 2.23329L8.23081 8.21454C8.70045 8.58207 9.3363 8.78842 9.99914 8.78842C10.662 8.78842 11.2978 8.58207 11.7675 8.21454V8.21454Z" fill="#A0A0A0"/>
</g>
<defs>
<clipPath id="clip0_435_580">
<rect width="20" height="15.7143" fill="white"/>
</clipPath>
</defs>
</svg>
