<svg width="140" height="20" viewBox="0 0 147 20" fill="none" xmlns="http://www.w3.org/2000/svg">
<path d="M28.688 15.144C27.704 15.144 26.816 14.934 26.024 14.514C25.244 14.094 24.626 13.494 24.17 12.714C23.726 11.934 23.504 11.022 23.504 9.978C23.504 8.946 23.732 8.04 24.188 7.26C24.644 6.468 25.268 5.862 26.06 5.442C26.852 5.022 27.74 4.812 28.724 4.812C29.708 4.812 30.596 5.022 31.388 5.442C32.18 5.862 32.804 6.468 33.26 7.26C33.716 8.04 33.944 8.946 33.944 9.978C33.944 11.01 33.71 11.922 33.242 12.714C32.786 13.494 32.156 14.094 31.352 14.514C30.56 14.934 29.672 15.144 28.688 15.144ZM28.688 12.48C29.276 12.48 29.774 12.264 30.182 11.832C30.602 11.4 30.812 10.782 30.812 9.978C30.812 9.174 30.608 8.556 30.2 8.124C29.804 7.692 29.312 7.476 28.724 7.476C28.124 7.476 27.626 7.692 27.23 8.124C26.834 8.544 26.636 9.162 26.636 9.978C26.636 10.782 26.828 11.4 27.212 11.832C27.608 12.264 28.1 12.48 28.688 12.48Z" fill="#F5F5F5"/>
<path d="M41.8769 4.848C43.0529 4.848 43.9889 5.232 44.6849 6C45.3929 6.756 45.7469 7.8 45.7469 9.132V15H42.6869V9.546C42.6869 8.874 42.5129 8.352 42.1649 7.98C41.8169 7.608 41.3489 7.422 40.7609 7.422C40.1729 7.422 39.7049 7.608 39.3569 7.98C39.0089 8.352 38.8349 8.874 38.8349 9.546V15H35.7569V4.956H38.8349V6.288C39.1469 5.844 39.5669 5.496 40.0949 5.244C40.6229 4.98 41.2169 4.848 41.8769 4.848Z" fill="#F5F5F5"/>
<path d="M51.1438 1.68V15H48.0658V1.68H51.1438Z" fill="#F5F5F5"/>
<path d="M63.8144 4.956L57.5144 19.77H54.2024L56.5064 14.658L52.4204 4.956H55.8584L58.1804 11.238L60.4844 4.956H63.8144Z" fill="#F5F5F5"/>
<path d="M64.4775 4.722V1.86H69.4635V15H66.2595V4.722H64.4775Z" fill="#F5F5F5"/>
<path d="M71.4431 9.978C71.4431 8.934 71.6531 8.022 72.0731 7.242C72.5051 6.462 73.0991 5.862 73.8551 5.442C74.6231 5.022 75.4991 4.812 76.4831 4.812C77.7431 4.812 78.7931 5.142 79.6331 5.802C80.4851 6.462 81.0431 7.392 81.3071 8.592H78.0311C77.7551 7.824 77.2211 7.44 76.4291 7.44C75.8651 7.44 75.4151 7.662 75.0791 8.106C74.7431 8.538 74.5751 9.162 74.5751 9.978C74.5751 10.794 74.7431 11.424 75.0791 11.868C75.4151 12.3 75.8651 12.516 76.4291 12.516C77.2211 12.516 77.7551 12.132 78.0311 11.364H81.3071C81.0431 12.54 80.4851 13.464 79.6331 14.136C78.7811 14.808 77.7311 15.144 76.4831 15.144C75.4991 15.144 74.6231 14.934 73.8551 14.514C73.0991 14.094 72.5051 13.494 72.0731 12.714C71.6531 11.934 71.4431 11.022 71.4431 9.978Z" fill="#F5F5F5"/>
<path d="M89.3075 4.848C90.4595 4.848 91.3835 5.232 92.0795 6C92.7755 6.756 93.1235 7.8 93.1235 9.132V15H90.0635V9.546C90.0635 8.874 89.8895 8.352 89.5415 7.98C89.1935 7.608 88.7255 7.422 88.1375 7.422C87.5495 7.422 87.0815 7.608 86.7335 7.98C86.3855 8.352 86.2115 8.874 86.2115 9.546V15H83.1335V1.68H86.2115V6.306C86.5235 5.862 86.9495 5.508 87.4895 5.244C88.0295 4.98 88.6355 4.848 89.3075 4.848Z" fill="#F5F5F5"/>
<path d="M104.91 9.816C104.91 10.104 104.892 10.404 104.856 10.716H97.8904C97.9384 11.34 98.1364 11.82 98.4844 12.156C98.8444 12.48 99.2824 12.642 99.7984 12.642C100.566 12.642 101.1 12.318 101.4 11.67H104.676C104.508 12.33 104.202 12.924 103.758 13.452C103.326 13.98 102.78 14.394 102.12 14.694C101.46 14.994 100.722 15.144 99.9064 15.144C98.9224 15.144 98.0464 14.934 97.2784 14.514C96.5104 14.094 95.9104 13.494 95.4784 12.714C95.0464 11.934 94.8304 11.022 94.8304 9.978C94.8304 8.934 95.0404 8.022 95.4604 7.242C95.8924 6.462 96.4924 5.862 97.2604 5.442C98.0284 5.022 98.9104 4.812 99.9064 4.812C100.878 4.812 101.742 5.016 102.498 5.424C103.254 5.832 103.842 6.414 104.262 7.17C104.694 7.926 104.91 8.808 104.91 9.816ZM101.76 9.006C101.76 8.478 101.58 8.058 101.22 7.746C100.86 7.434 100.41 7.278 99.8704 7.278C99.3544 7.278 98.9164 7.428 98.5564 7.728C98.2084 8.028 97.9924 8.454 97.9084 9.006H101.76Z" fill="#F5F5F5"/>
<path d="M106.102 9.978C106.102 8.934 106.312 8.022 106.732 7.242C107.164 6.462 107.758 5.862 108.514 5.442C109.282 5.022 110.158 4.812 111.142 4.812C112.402 4.812 113.452 5.142 114.292 5.802C115.144 6.462 115.702 7.392 115.966 8.592H112.69C112.414 7.824 111.88 7.44 111.088 7.44C110.524 7.44 110.074 7.662 109.738 8.106C109.402 8.538 109.234 9.162 109.234 9.978C109.234 10.794 109.402 11.424 109.738 11.868C110.074 12.3 110.524 12.516 111.088 12.516C111.88 12.516 112.414 12.132 112.69 11.364H115.966C115.702 12.54 115.144 13.464 114.292 14.136C113.44 14.808 112.39 15.144 111.142 15.144C110.158 15.144 109.282 14.934 108.514 14.514C107.758 14.094 107.164 13.494 106.732 12.714C106.312 11.934 106.102 11.022 106.102 9.978Z" fill="#F5F5F5"/>
<path d="M123.931 15L120.871 10.788V15H117.793V1.68H120.871V9.042L123.913 4.956H127.711L123.535 9.996L127.747 15H123.931Z" fill="#F5F5F5"/>
<path d="M138.568 9.816C138.568 10.104 138.55 10.404 138.514 10.716H131.548C131.596 11.34 131.794 11.82 132.142 12.156C132.502 12.48 132.94 12.642 133.456 12.642C134.224 12.642 134.758 12.318 135.058 11.67H138.334C138.166 12.33 137.86 12.924 137.416 13.452C136.984 13.98 136.438 14.394 135.778 14.694C135.118 14.994 134.38 15.144 133.564 15.144C132.58 15.144 131.704 14.934 130.936 14.514C130.168 14.094 129.568 13.494 129.136 12.714C128.704 11.934 128.488 11.022 128.488 9.978C128.488 8.934 128.698 8.022 129.118 7.242C129.55 6.462 130.15 5.862 130.918 5.442C131.686 5.022 132.568 4.812 133.564 4.812C134.536 4.812 135.4 5.016 136.156 5.424C136.912 5.832 137.5 6.414 137.92 7.17C138.352 7.926 138.568 8.808 138.568 9.816ZM135.418 9.006C135.418 8.478 135.238 8.058 134.878 7.746C134.518 7.434 134.068 7.278 133.528 7.278C133.012 7.278 132.574 7.428 132.214 7.728C131.866 8.028 131.65 8.454 131.566 9.006H135.418Z" fill="#F5F5F5"/>
<path d="M143.449 6.63C143.809 6.078 144.259 5.646 144.799 5.334C145.339 5.01 145.939 4.848 146.599 4.848V8.106H145.753C144.985 8.106 144.409 8.274 144.025 8.61C143.641 8.934 143.449 9.51 143.449 10.338V15H140.371V4.956H143.449V6.63Z" fill="#F5F5F5"/>
<path d="M0 6H6L10 16H4.23529L0 6Z" fill="url(#paint0_linear_337_578)"/>
<path d="M10.1019 16H4L8.89815 0H15L10.1019 16Z" fill="url(#paint1_linear_337_578)"/>
<defs>
<linearGradient id="paint0_linear_337_578" x1="48.2916" y1="-0.250253" x2="48.6061" y2="20.6976" gradientUnits="userSpaceOnUse">
<stop stop-color="#F5F5F5"/>
<stop offset="1" stop-color="#949292"/>
</linearGradient>
<linearGradient id="paint1_linear_337_578" x1="12" y1="0.375" x2="6.125" y2="18.625" gradientUnits="userSpaceOnUse">
<stop stop-color="#D9D9D9"/>
<stop offset="0.445833" stop-color="#D9D9D9"/>
<stop offset="1" stop-color="#747474"/>
</linearGradient>
</defs>
</svg>
